<svg width="33" height="32" viewBox="0 0 33 32" fill="none" xmlns="http://www.w3.org/2000/svg">
<path d="M16.5 17.2001L13.3875 12.9251L16.5 4.6001L19.6125 12.9251L16.5 17.2001Z" fill="#F8D462"/>
<path d="M16.5 4.6001V17.2001L13.3875 12.9251L16.5 4.6001Z" fill="#DCB000"/>
<path d="M16.5 17.2L11.475 18.85L4.5 13.3L13.3875 12.925L16.5 17.2Z" fill="#F8D462"/>
<path d="M4.5 13.3L16.5 17.2L11.475 18.85L4.5 13.3Z" fill="#DCB000"/>
<path d="M16.5 17.2001V22.4876L9.07501 27.4001L11.475 18.8126L16.5 17.2001Z" fill="#F8D462"/>
<path d="M9.07501 27.4001L16.5 17.2001V22.4876L9.07501 27.4001Z" fill="#DCB000"/>
<path d="M16.5 17.2001L21.525 18.8126L23.925 27.4001L16.5 22.4876V17.2001Z" fill="#F8D462"/>
<path d="M23.925 27.4001L16.5 17.2001L21.525 18.8126L23.925 27.4001Z" fill="#DCB000"/>
<path d="M16.5 17.2L19.6125 12.925L28.5 13.3L21.525 18.85L16.5 17.2Z" fill="#F8D462"/>
<path d="M28.5 13.3L16.5 17.2L19.6125 12.925L28.5 13.3Z" fill="#DCB000"/>
</svg>
