<svg width="32" height="32" viewBox="0 0 32 32" fill="none" xmlns="http://www.w3.org/2000/svg">
<path d="M22.5206 5.90833L10.5206 5.30711L4 15.3988L9.47936 26.0917L21.4794 26.6929L28 16.6012L22.5206 5.90833ZM21.6073 7.3218L25.9355 15.7681L16.4567 15.2932L12.1285 6.84695L21.6073 7.3218ZM5.6808 15.4829L10.8315 7.51159L15.1596 15.9579L10.0089 23.9293L5.6808 15.4829ZM20.7119 25.1952L11.233 24.7203L16.3837 16.7489L25.8625 17.2238L20.7119 25.1952Z" fill="#4D3C6A"/>
<path d="M19.2311 11.9636C19.7007 11.9636 20.0814 11.5829 20.0814 11.1133C20.0814 10.6437 19.7007 10.263 19.2311 10.263C18.7615 10.263 18.3808 10.6437 18.3808 11.1133C18.3808 11.5829 18.7615 11.9636 19.2311 11.9636Z" fill="#4D3C6A"/>
<path d="M15.4009 23.6795C15.8706 23.6795 16.2513 23.2988 16.2513 22.8292C16.2513 22.3596 15.8706 21.9789 15.4009 21.9789C14.9313 21.9789 14.5506 22.3596 14.5506 22.8292C14.5506 23.2988 14.9313 23.6795 15.4009 23.6795Z" fill="#4D3C6A"/>
<path d="M21.587 20.2464C22.0567 20.2464 22.4373 19.8657 22.4373 19.3961C22.4373 18.9265 22.0567 18.5458 21.587 18.5458C21.1174 18.5458 20.7367 18.9265 20.7367 19.3961C20.7367 19.8657 21.1174 20.2464 21.587 20.2464Z" fill="#4D3C6A"/>
<path d="M10.4458 12.9798C10.9154 12.9798 11.2961 12.5991 11.2961 12.1295C11.2961 11.6599 10.9154 11.2792 10.4458 11.2792C9.97616 11.2792 9.59546 11.6599 9.59546 12.1295C9.59546 12.5991 9.97616 12.9798 10.4458 12.9798Z" fill="#4D3C6A"/>
<path d="M8.10578 16.5602C8.57539 16.5602 8.95609 16.1795 8.95609 15.7098C8.95609 15.2402 8.57539 14.8595 8.10578 14.8595C7.63616 14.8595 7.25546 15.2402 7.25546 15.7098C7.25546 16.1795 7.63616 16.5602 8.10578 16.5602Z" fill="#4D3C6A"/>
<path d="M12.4052 16.8517C12.8748 16.8517 13.2555 16.471 13.2555 16.0014C13.2555 15.5318 12.8748 15.1511 12.4052 15.1511C11.9355 15.1511 11.5548 15.5318 11.5548 16.0014C11.5548 16.471 11.9355 16.8517 12.4052 16.8517Z" fill="#4D3C6A"/>
<path d="M10.1383 20.2464C10.6079 20.2464 10.9886 19.8657 10.9886 19.3961C10.9886 18.9265 10.6079 18.5458 10.1383 18.5458C9.66866 18.5458 9.28796 18.9265 9.28796 19.3961C9.28796 19.8657 9.66866 20.2464 10.1383 20.2464Z" fill="#4D3C6A"/>
</svg>
