<svg width="32" height="32" viewBox="0 0 32 32" fill="none" xmlns="http://www.w3.org/2000/svg">
<g clip-path="url(#clip0_115_514)">
<g clip-path="url(#clip1_115_514)">
<path d="M24.7018 10.948C24.8634 10.9933 25.0334 11.0181 25.2093 11.0181C26.2457 11.0181 27.089 10.1749 27.089 9.13839C27.089 8.10194 26.2458 7.2587 25.2093 7.2587C24.1728 7.2587 23.3296 8.10189 23.3296 9.13839C23.3296 9.292 23.3485 9.4412 23.3835 9.58417L19.8243 11.336L17.0728 7.40533C17.547 7.06375 17.8565 6.50739 17.8565 5.87969C17.8565 4.84323 17.0132 4 15.9768 4C14.9403 4 14.0971 4.84323 14.0971 5.87973C14.0971 6.50355 14.4028 7.057 14.872 7.39909L12.1162 11.336L8.55986 9.58563C8.63125 9.38725 8.67039 9.17359 8.67039 8.95094C8.67039 7.91448 7.8272 7.07125 6.7907 7.07125C5.75425 7.07125 4.91097 7.91444 4.91097 8.95094C4.91097 9.98739 5.7542 10.8307 6.7907 10.8307C6.92495 10.8307 7.05588 10.8162 7.18225 10.7894L9.36934 16.9395V18.5844H6.37998V28H25.62V18.5844H22.564V16.9595L24.7018 10.948ZM25.2093 8.665C25.4703 8.665 25.6828 8.87734 25.6828 9.13844C25.6828 9.39948 25.4704 9.61192 25.2093 9.61192C24.9482 9.61192 24.7359 9.39953 24.7359 9.13844C24.7359 8.87734 24.9482 8.665 25.2093 8.665ZM6.79075 9.42438C6.52966 9.42438 6.31727 9.21194 6.31727 8.95089C6.31727 8.68984 6.52966 8.47745 6.79075 8.47745C7.0518 8.47745 7.26419 8.6898 7.26419 8.95089C7.26419 9.21194 7.05184 9.42438 6.79075 9.42438ZM15.9768 5.40625C16.2378 5.40625 16.4503 5.61864 16.4503 5.87973C16.4503 6.14083 16.2379 6.35317 15.9768 6.35317C15.7157 6.35317 15.5034 6.14083 15.5034 5.87973C15.5034 5.61864 15.7157 5.40625 15.9768 5.40625ZM24.2137 19.9906V26.5938H7.78623V19.9906H24.2137ZM10.7756 18.4757V17.5212H21.1577V18.4757H10.7756ZM21.3718 16.115H10.5687L8.85592 11.2987L12.5769 13.13L15.9702 8.28236L19.3637 13.13L23.0846 11.2987L21.3718 16.115Z" fill="#4D3C6A"/>
<path d="M14.9307 21.2831L13.824 24.5285L13.3763 23.341L14.1162 21.2893H13.1711L12.7235 22.7006L12.2759 21.2893H11.337L12.0645 23.341L11.6292 24.5285L10.5163 21.2831H9.40961L11.1692 25.6974H12.0272L12.7235 23.969L13.4261 25.6974H14.2779L16.0436 21.2831H14.9307Z" fill="#4D3C6A"/>
<path d="M17.4486 21.2828H16.4289V25.697H17.4486V21.2828Z" fill="#4D3C6A"/>
<path d="M21.148 21.2831V23.8757L19.09 21.2831H18.2942V25.6974H19.3139V23.1731L21.3469 25.6974H22.1677V21.2831H21.148Z" fill="#4D3C6A"/>
</g>
</g>
<defs>
<clipPath id="clip0_115_514">
<rect width="24" height="24" fill="white" transform="translate(4 4)"/>
</clipPath>
<clipPath id="clip1_115_514">
<rect width="24" height="24" fill="white" transform="translate(4 4)"/>
</clipPath>
</defs>
</svg>
