<svg width="32" height="32" viewBox="0 0 32 32" fill="none" xmlns="http://www.w3.org/2000/svg">
<path d="M24.8482 13.2163L25.3467 12.0828L13.0945 6.6738L10.0317 13.6382L11.3157 14.205L10.3606 16.3768L12.3877 17.2717L11.1568 19.9871C11.0678 19.9744 10.977 19.9674 10.8846 19.9674C10.0873 19.9674 9.40258 20.458 9.11453 21.1536H7.74283V18.0347H4V25.3262H7.74283V22.5599H9.09095C9.36372 23.287 10.0647 23.806 10.8846 23.806C11.9408 23.806 12.8002 22.945 12.8002 21.8867C12.8002 21.4341 12.6426 21.0178 12.38 20.6893L13.6721 17.8387L15.3764 18.5911L16.3315 16.4193L22.2839 19.0471L22.7823 17.9135L25.1636 20.0109L28 13.5617L24.8482 13.2163ZM6.3393 23.9199H5.40358V19.441H6.3393V23.9199ZM10.8846 22.3998C10.6023 22.3998 10.3726 22.1696 10.3726 21.8868C10.3726 21.6039 10.6023 21.3738 10.8846 21.3738C11.167 21.3738 11.3966 21.6039 11.3966 21.8868C11.3966 22.1696 11.167 22.3998 10.8846 22.3998ZM13.813 8.52761L15.037 9.06794L13.1061 13.4586L11.8821 12.9183L13.813 8.52761ZM14.658 16.7372L12.2109 15.6569L12.6001 14.772L15.0471 15.8523L14.658 16.7372ZM21.7939 16.6735L21.5654 17.1931L16.8975 15.1324L14.3905 14.0256L16.3214 9.63498L23.4963 12.8025L23.3849 13.0558H23.3849L21.7939 16.6735ZM24.6517 17.6875L23.3759 16.5639L24.2546 14.5659L25.9431 14.7509L24.6517 17.6875Z" fill="#4D3C6A"/>
<path d="M20.4929 14.7814L20.1063 15.6605L20.9837 16.0479L21.3704 15.1687L20.4929 14.7814Z" fill="#4D3C6A"/>
</svg>
