<svg width="32" height="32" viewBox="0 0 32 32" fill="none" xmlns="http://www.w3.org/2000/svg">
<path d="M23.4641 12.5534C23.9456 12.1137 24.2875 11.5406 24.4453 10.8846C24.8013 9.40421 24.2101 8.41749 23.6514 7.8504C23.1819 7.37391 22.5794 7.04176 21.9111 6.89045L21.7093 6.84413L21.6635 6.64454C21.5116 5.97414 21.1796 5.37161 20.7029 4.90206C20.1359 4.34336 19.149 3.75222 17.6688 4.10823C17.0128 4.26587 16.4397 4.60778 16 5.08928C15.5603 4.60778 14.9872 4.26587 14.3312 4.10814C12.8508 3.75194 11.8641 4.34331 11.2969 4.90201C10.8204 5.37151 10.4883 5.97404 10.337 6.64229L10.2907 6.84404L10.0911 6.88988C9.42058 7.04171 8.81805 7.37382 8.3486 7.85035C7.78989 8.41744 7.19871 9.40416 7.55472 10.8846C7.7125 11.5406 8.05432 12.1137 8.53586 12.5534C8.05436 12.993 7.7125 13.5661 7.55472 14.2221C7.19866 15.7026 7.78989 16.6892 8.3486 17.2563C8.8181 17.7328 9.42067 18.0651 10.089 18.2163L10.2907 18.2626L10.3365 18.4622C10.4883 19.1327 10.8205 19.7352 11.297 20.2047C11.8641 20.7633 12.8507 21.3545 14.3312 20.9985C14.7031 20.9091 15.0481 20.7604 15.3575 20.5608C15.3758 21.16 15.3481 22.1299 15.0803 23.1204C14.5377 25.1282 13.2729 26.2999 11.3211 26.6031L11.5382 28C14.0716 27.6064 15.7723 26.0317 16.4565 23.446C16.7416 22.3688 16.7879 21.3365 16.7744 20.6414C17.049 20.8007 17.3489 20.9217 17.6687 20.9986C17.9811 21.0738 18.2713 21.1067 18.5403 21.1067C19.5466 21.1066 20.2555 20.6456 20.7029 20.2047C21.1794 19.7353 21.5116 19.1328 21.6629 18.4644L21.7092 18.2627L21.9087 18.2168C22.5792 18.0651 23.1818 17.7329 23.6513 17.2564C24.21 16.6893 24.8012 15.7026 24.4452 14.2222C24.2874 13.5661 23.9456 12.993 23.4641 12.5534ZM22.6445 16.2643C22.3652 16.5478 22.0029 16.7463 21.5946 16.8387L20.5299 17.0833L20.2849 18.1501C20.1929 18.5563 19.9945 18.9185 19.711 19.1978C19.2509 19.6511 18.6909 19.7906 17.9994 19.6243C17.4142 19.4835 16.9581 19.1028 16.7037 18.5467L16.6848 13.6204L15.2713 13.6258L15.2902 18.56C15.0346 19.1089 14.5812 19.4847 14.0007 19.6243C13.3093 19.7908 12.7493 19.6512 12.2891 19.1978C12.0056 18.9186 11.8072 18.5563 11.7147 18.148L11.4702 17.0833L10.4034 16.8382C9.99723 16.7463 9.63494 16.5478 9.35566 16.2644C8.90233 15.8043 8.76283 15.2444 8.92919 14.5528C9.06935 13.9701 9.44749 13.5152 9.99981 13.2602H14.8066V11.8467H9.99967C9.44734 11.5917 9.06925 11.1369 8.92905 10.5541C8.76269 9.8625 8.90224 9.30263 9.35552 8.8425C9.63475 8.55905 9.99705 8.36063 10.4054 8.26815L11.47 8.0236L11.7151 6.95677C11.807 6.55065 12.0055 6.18835 12.2889 5.90907C12.7492 5.45575 13.3089 5.31634 14.0007 5.4826C14.5825 5.62253 15.0368 5.99978 15.292 6.55079L15.311 11.5685L16.7245 11.5631L16.7056 6.55552C16.9604 6.00189 17.4158 5.62295 17.9993 5.4826C18.691 5.31615 19.2509 5.45584 19.7109 5.90903C19.9945 6.18835 20.1929 6.55065 20.2853 6.95888L20.5299 8.0236L21.5967 8.26866C22.0029 8.36063 22.3652 8.5591 22.6444 8.84255C23.0977 9.30268 23.2372 9.86255 23.0709 10.5542C22.9306 11.1375 22.5519 11.5927 21.9986 11.8475L17.2095 11.8467L17.2092 13.2602L22.002 13.261C22.5534 13.5162 22.9309 13.9706 23.0709 14.5527C23.2373 15.2444 23.0977 15.8043 22.6445 16.2643Z" fill="#4D3C6A"/>
</svg>
