<svg width="20" height="20" viewBox="0 0 20 20" fill="none" xmlns="http://www.w3.org/2000/svg">
<rect width="20" height="20" rx="6" transform="matrix(1 0 0 -1 0 20)" fill="#E2E2F4"/>
<path d="M10.2001 13C10.3421 13.0002 10.4826 12.97 10.6121 12.9116C10.7416 12.8532 10.8572 12.7678 10.951 12.6612L15.2124 7.81736C15.3471 7.65685 15.4137 7.45001 15.3978 7.24108C15.382 7.03214 15.285 6.83769 15.1277 6.69931C14.9704 6.56092 14.7651 6.48958 14.5559 6.50055C14.3466 6.51152 14.15 6.60392 14.008 6.75799L10.2817 10.9937C10.2715 11.0054 10.259 11.0147 10.2449 11.0211C10.2308 11.0275 10.2155 11.0308 10.2001 11.0308C10.1846 11.0308 10.1693 11.0275 10.1552 11.0211C10.1411 11.0147 10.1286 11.0054 10.1184 10.9937L6.39214 6.75799C6.25013 6.60392 6.05348 6.51152 5.84423 6.50055C5.63498 6.48958 5.42975 6.56092 5.27241 6.69931C5.11508 6.83769 5.01813 7.03214 5.00229 7.24108C4.98646 7.45001 5.053 7.65685 5.18769 7.81736L9.44777 12.6595C9.54182 12.7664 9.65755 12.852 9.78726 12.9107C9.91696 12.9694 10.0577 12.9999 10.2001 13Z" fill="#3C2A5C"/>
</svg>
